<svg xmlns="http://www.w3.org/2000/svg" width="640" height="384" viewBox="0 0 640 384">
  <path fill="#FF5A5F" d="M635.73,342.91 L441.69,45.31 C435.9,36.44 425.95,32 416,32 C406.05,32 396.1,36.44 390.31,45.31 L338.31,125.07 L267.52,14.52 C261.32,4.84 250.66,0 240,0 C229.34,0 218.68,4.84 212.48,14.52 L4.58,339.18 C-7.99,358.81 6.81,384 30.92,384 L611.14,384 C633.64,384 647.46,360.91 635.73,342.91 Z M63.61,336 L240,60.55 L416.39,336 L63.61,336 Z M473.39,336 L366.71,169.4 L416,93.8 L573.92,336 L473.39,336 Z"/>
</svg>
