<svg xmlns="http://www.w3.org/2000/svg" width="640" height="384" viewBox="0 0 640 384">
  <path fill="#FF5A5F" d="M635.73,342.91 L441.69,45.31 C435.9,36.44 425.95,32 416,32 C406.05,32 396.1,36.44 390.31,45.31 L338.31,125.07 L267.52,14.52 C261.32,4.84 250.66,0 240,0 C229.34,0 218.68,4.84 212.48,14.52 L4.58,339.18 C-7.99,358.81 6.81,384 30.92,384 L611.14,384 C633.64,384 647.46,360.91 635.73,342.91 Z M33.71,353.02 L239.03,32.17 C239.11,32.13 239.47,32 240,32 L240.57,31.78 L445.63,352 L33.71,353.02 Z M479.65,352 C479.26,347.67 478.07,343.3 475.43,339.18 L357.24,154.62 L416,64.51 L603.45,352 L479.65,352 L479.65,352 Z"/>
</svg>
